<?xml version="1.0" encoding="utf-8"?>
<!-- Generator: Adobe Illustrator 16.0.0, SVG Export Plug-In . SVG Version: 6.00 Build 0)  -->
<!DOCTYPE svg PUBLIC "-//W3C//DTD SVG 1.1//EN" "http://www.w3.org/Graphics/SVG/1.1/DTD/svg11.dtd">
<svg version="1.1" id="Layer_1" xmlns="http://www.w3.org/2000/svg" xmlns:xlink="http://www.w3.org/1999/xlink" x="0px" y="0px"
	 width="2023px" height="847px" viewBox="0 0 2023 847" enable-background="new 0 0 2023 847" xml:space="preserve">
<rect fill="#FFC0CB" stroke="#FFFFFF" stroke-miterlimit="10" width="2023" height="847"/>
<g>
	<g>
		<path fill-rule="evenodd" clip-rule="evenodd" fill="#583016" d="M920.349,298.421c5.397-3.24,25.098,19.074,34.298,32.469
			c17.479,25.457,17.861,52.133,8.685,79.389c-1.439,4.272-3.336,8.338-4.901,12.558c-0.239,0.645-0.895,2.068-0.895,2.068
			s0.552,0.847,0.693,1.065c6.332,9.698,12.798,19.299,18.99,28.56c5.495-1.674,10.471-3.998,15.712-4.637
			c14.645-1.788,27.381,3.289,36.632,16.584c9.349,13.438,9.141,27.648,3.219,41.684c-2.295,5.441-5.357,10.706-8.554,15.567
			c0,0,1.227,1.728,1.806,2.599c4.694,7.096,8.986,14.486,13.711,21.56c11.918,17.847,6.45,35.236-2.961,45.167
			c-8.774,9.259-19.147,14.96-32.401,12.627c-11.458-2.024-20.933-12.759-22.178-24.724c-1.062-10.202,3.961-18.493,12.851-21.211
			c7.541-2.299,17.255,2.477,21.806,10.717c5.037,9.122,3.739,18.494-3.618,25.644c-1.531,1.491-3.23,2.782-5.288,4.534
			c6.422,0.921,11.75-0.71,16.854-3.365c12.31-6.402,19.764-21.807,16.632-35.211c-0.832-3.556-2.614-7.047-4.499-10.22
			c-5.063-8.535-10.418-16.884-15.766-25.483c-2.932,2.313-5.395,4.874-8.347,6.494c-23.423,12.848-47.171,12.606-70.701-3.451
			c-15.9-10.85-22.06-27.409-23.125-46.271c-1.015-17.942,2.896-34.786,8.53-51.102c2.896-8.393,6.237-16.613,9.821-24.666
			c0.684-1.542,1.701-4.92,1.701-4.92s-1.388-1.947-2.492-3.62c-14.938-22.638-23.028-47.38-22.353-74.548
			C914.432,315.237,916.204,306.609,920.349,298.421 M991.633,517.146c-14.935,3.784-27.546-3.613-32.183-18.806
			c-3.669-12.021-0.704-22.604,5.938-31.939c2.371-3.33,5.403-6.105,8.347-9.375c-6.044-9.211-12.155-18.53-18.635-28.406
			c-10.204,20.013-19.049,39.804-17.935,63.26c0.635,13.295,5.006,25.254,15.39,33.859c16.024,13.275,33.221,14.855,50.919,7.283
			c5.601-2.394,10.573-5.816,14.221-11.212c-11.142-16.416-22.114-32.578-33.271-49.018c-7.789,5.136-13.891,11.29-13.567,21.421
			C971.286,507.645,980.078,513.774,991.633,517.146 M941.602,397.837c7.5-17.672,14.395-35.434,10.39-55.988
			c-1.623-8.319-5.789-15.166-12.693-19.984c-4.81-3.356-8.898-2.831-11.331,2.439c-1.722,3.727-2.935,8.095-3.082,12.304
			C924.118,358.483,930.063,378.797,941.602,397.837 M1025.581,504.299c3.167-18.481-9.411-36.423-26.417-36.975
			c-3.873-0.127-7.422,0.291-11.13,3.106c10.729,15.706,22.073,32.364,32.644,47.838
			C1020.678,518.269,1024.165,512.555,1025.581,504.299"/>
		<path fill-rule="evenodd" clip-rule="evenodd" fill="#583016" d="M1126.003,261.125c5.304,10.115,10.725,20.546,16.057,30.646
			c3.757,7.123,2.206,13.784-4.457,18.23c-2.415,1.611-5.123,2.806-7.892,0.893c-2.791-1.922-2.69-4.851-1.846-7.672
			c1.748-5.855,5.465-9.771,11.905-11.034c-4.04-7.579-7.99-15.006-12.119-22.752c-10.582,6.944-21.028,13.807-31.545,20.709
			c5.063,9.512,9.939,18.653,14.803,27.808c3.734,7.026,0.54,15.641-6.892,18.643c-4.654,1.877-8.285-0.684-8.067-5.701
			c0.261-5.905,4.935-11.105,12.312-13.414c-5.811-10.913-11.591-21.77-17.499-32.858L1126.003,261.125z"/>
		<path fill-rule="evenodd" clip-rule="evenodd" fill="#583016" d="M1089.673,361.34c7.716,14.712,15.602,29.893,23.358,44.585
			c5.468,10.359,3.208,20.051-6.485,26.517c-3.514,2.348-7.45,4.08-11.481,1.305c-4.055-2.796-3.911-7.062-2.681-11.166
			c2.541-8.517,7.948-14.213,17.318-16.052c-5.875-11.03-11.623-21.831-17.627-33.101c-15.396,10.104-30.596,20.09-45.894,30.129
			c7.364,13.836,14.459,27.14,21.532,40.455c5.433,10.223,0.785,22.753-10.024,27.122c-6.771,2.733-12.051-0.997-11.732-8.293
			c0.374-8.589,7.175-16.16,17.906-19.514c-8.454-15.877-16.865-31.671-25.452-47.8L1089.673,361.34z"/>
		<path fill-rule="evenodd" clip-rule="evenodd" fill="#583016" d="M1539.342,397.533c1.584,11.307,3.168,22.958,4.787,34.265
			c1.138,7.972-2.569,13.718-10.345,15.66c-2.814,0.701-5.763,0.916-7.728-1.822c-1.981-2.747-0.898-5.472,0.847-7.844
			c3.623-4.926,8.438-7.357,14.928-6.375c-1.245-8.499-2.462-16.82-3.736-25.509c-12.307,2.972-24.458,5.915-36.681,8.864
			c1.561,10.66,3.07,20.917,4.56,31.172c1.146,7.875-4.764,14.903-12.771,15.228c-5.018,0.201-7.569-3.438-5.674-8.085
			c2.235-5.469,8.39-8.792,16.112-8.481c-1.792-12.229-3.574-24.401-5.398-36.831L1539.342,397.533z"/>
		<path fill-rule="evenodd" clip-rule="evenodd" fill="#583016" d="M1614.683,438.091c-1.214,6.014-2.488,12.198-3.688,18.214
			c-0.847,4.239-3.75,6.492-8.034,6.088c-1.552-0.144-3.084-0.568-3.591-2.3c-0.516-1.75,0.521-2.937,1.832-3.828
			c2.71-1.844,5.584-2.22,8.695-0.562c0.89-4.531,1.757-8.963,2.661-13.591c-6.765-0.688-13.444-1.371-20.167-2.054
			c-1.112,5.678-2.177,11.143-3.251,16.605c-0.824,4.192-5.075,6.702-9.188,5.436c-2.578-0.796-3.223-3.091-1.432-5.109
			c2.106-2.375,5.818-2.956,9.674-1.421c1.276-6.517,2.544-13.004,3.84-19.621L1614.683,438.091z"/>
		<path fill-rule="evenodd" clip-rule="evenodd" fill="#583016" d="M1325.154,238.082c6.995,17.005,14.126,34.544,21.167,51.536
			c4.964,11.98,1.478,22.429-9.872,28.561c-4.111,2.224-8.629,3.735-12.785,0.259c-4.185-3.498-3.585-8.182-1.81-12.585
			c3.678-9.125,10.221-14.851,20.732-15.908c-5.341-12.763-10.57-25.255-16.029-38.296c-18.005,9.558-35.782,18.999-53.673,28.497
			c6.695,16.004,13.151,31.398,19.579,46.797c4.938,11.828-1.472,25.158-13.835,28.865c-7.745,2.315-13.182-2.335-12.079-10.343
			c1.295-9.43,9.566-17.073,21.735-19.671c-7.686-18.365-15.333-36.637-23.146-55.299L1325.154,238.082z"/>
		<path fill-rule="evenodd" clip-rule="evenodd" fill="#583016" d="M1245.533,381.196c-16.686-27.137-33.348-53.788-49.786-80.565
			c0.85-0.54,1.702-1.081,2.553-1.619c1.114,1.495,2.349,2.914,3.331,4.489c16.719,26.954,32.677,54.415,50.432,80.667
			c8.203,12.132-3.22,36.673-19.016,39.332c-7.362,1.227-12.771-4.199-12.753-12.588c0.021-12.106,9.582-24.958,21.197-28.483
			C1242.618,382.089,1243.74,381.744,1245.533,381.196"/>
		<path fill-rule="evenodd" clip-rule="evenodd" fill="#583016" d="M1390.945,427.976c-3.31-24.159-6.749-47.966-9.993-71.796
			c0.76-0.115,1.525-0.23,2.289-0.345c0.319,1.393,0.746,2.77,0.947,4.175c3.387,24.036,6.083,48.197,10.409,72.065
			c2.001,11.027-13.578,24.684-25.458,21.667c-5.536-1.408-7.647-6.878-5.046-12.753c3.751-8.468,14.417-14.516,23.641-13.398
			C1388.627,427.698,1389.522,427.803,1390.945,427.976"/>
		<path fill-rule="evenodd" clip-rule="evenodd" fill="#583016" d="M1598.315,395.586c-1.947-14.223-3.971-28.238-5.881-42.268
			c0.446-0.065,0.898-0.136,1.345-0.2c0.19,0.815,0.441,1.628,0.559,2.454c1.993,14.153,3.583,28.375,6.129,42.424
			c1.175,6.491-7.992,14.536-14.985,12.756c-3.26-0.829-4.505-4.049-2.973-7.506c2.209-4.988,8.488-8.548,13.917-7.888
			C1596.953,395.424,1597.478,395.484,1598.315,395.586"/>
		<path fill-rule="evenodd" clip-rule="evenodd" fill="#583016" d="M1011.357,320.784c-0.034-0.07,0.21-0.507,0.245-0.589
			c0.087-0.195,0.169-0.391,0.261-0.582c0.178-0.386,0.377-0.763,0.6-1.126c0.453-0.726,0.989-1.462,1.686-1.967
			c1.111-0.806,2.595-1.023,3.916-0.684c1.375,0.353,2.543,1.211,3.295,2.397c0.711,1.121,1.283,2.395,1.3,3.74
			c0.009,0.679-0.076,1.468-0.304,2.111c-1.123,3.194-4.098,4.776-7.255,3.855c-5.326-1.555-8.654-7.914-7.058-13.786
			c1.868-6.865,6.855-10.72,13.305-12.681c6.143-1.868,11.532,0.087,15.569,4.875c2.221,2.636,4.38,5.707,5.347,8.942
			c3.767,12.661,1.176,24.41-6.327,35.138c-1.041,1.485-2.137,3.223-4.954,2.934c0.678-1.093,1.109-1.911,1.655-2.646
			c6.729-9.042,6.394-30.061-1.705-39.564c-1.711-2.008-3.931-3.919-6.314-4.954c-7.308-3.177-15.345,3.076-14.425,10.989
			C1010.316,318.233,1010.564,319.269,1011.357,320.784"/>
		<path fill-rule="evenodd" clip-rule="evenodd" stroke="#583016" stroke-miterlimit="10" d="M1042.281,294.238
			c1.083,1.475,0.802,3.404-0.648,4.333c-1.57,1.006-3.07,0.867-4.209-0.713c-1.143-1.593-0.802-3.123,0.691-4.203
			C1039.633,292.557,1041.141,292.896,1042.281,294.238"/>
		<path fill-rule="evenodd" clip-rule="evenodd" stroke="#583016" stroke-miterlimit="10" d="M1051.22,306.474
			c0.928,1.64,0.814,3.116-0.755,4.228c-1.558,1.103-3.076,0.867-4.19-0.673c-1.116-1.547-0.841-3.051,0.707-4.176
			C1048.552,304.713,1049.973,305.128,1051.22,306.474"/>
		<path fill-rule="evenodd" clip-rule="evenodd" fill="#583016" d="M1503.136,326.958c0.06-0.112,0.884-0.18,1.028-0.207
			c0.346-0.067,0.688-0.131,1.034-0.188c0.695-0.112,1.395-0.188,2.097-0.219c1.406-0.056,2.906-0.002,4.239,0.484
			c2.126,0.773,3.796,2.595,4.554,4.71c0.787,2.204,0.697,4.592-0.23,6.715c-0.87,2.003-2.08,3.965-3.902,5.232
			c-0.916,0.638-2.074,1.251-3.16,1.537c-5.403,1.415-10.311-1.186-11.97-6.344c-2.803-8.707,2.805-19.126,12.295-22.373
			c11.098-3.796,20.97-0.552,29.608,6.444c8.226,6.659,10.536,15.82,7.73,25.762c-1.541,5.465-3.738,11.249-7.263,15.557
			c-13.802,16.846-32.238,24.167-53.813,23.836c-2.99-0.049-6.379,0.061-8.585-4.053c2.119-0.081,3.637-0.25,5.141-0.184
			c18.56,0.83,46.946-19.056,52.433-38.891c1.161-4.193,1.723-8.988,0.93-13.201c-2.417-12.909-18.375-18.102-28.332-9.532
			C1505.653,323.18,1504.472,324.471,1503.136,326.958"/>
		<path fill-rule="evenodd" clip-rule="evenodd" fill="#583016" d="M1567.95,344.642c-1.014,2.839-3.908,4.24-6.512,3.117
			c-2.826-1.213-4.023-3.388-2.918-6.405c1.114-3.036,3.523-3.979,6.374-2.938C1567.798,339.471,1568.728,341.847,1567.95,344.642"
			/>
		<path fill-rule="evenodd" clip-rule="evenodd" fill="#583016" d="M1559.508,368.15c-1.379,2.784-3.505,3.991-6.471,2.88
			c-2.944-1.112-4.03-3.399-2.955-6.345c1.08-2.953,3.392-3.972,6.356-2.895C1559.445,362.878,1560.191,365.203,1559.508,368.15"/>
		<path fill-rule="evenodd" clip-rule="evenodd" fill="#583016" d="M1426.359,346.611c-0.339-1.218-0.593-2.142-0.849-3.068
			c-5.412-19.544-10.818-39.092-16.244-58.634c-0.406-1.457-0.89-2.841,1.659-2.755c3.748,7.521,11.014,11.537,17.258,16.644
			c3.044,2.491,6.244,4.854,8.966,7.672c7.2,7.466,7.834,16.397,5.169,25.913c-0.086,0.307-0.279,0.593-0.466,0.858
			c-0.077,0.115-0.271,0.154-0.804,0.437c1.769-17.843-4.101-29.643-24.23-30.507c0.331,1.203,0.582,2.117,0.835,3.029
			c4.033,14.561,8.021,29.133,12.132,43.673c0.999,3.533,0.817,6.831-0.982,9.981c-3.583,6.281-8.638,10.749-15.965,11.984
			c-7.108,1.204-11.405-3.94-9.243-10.853C1406.495,351.717,1416.299,345.357,1426.359,346.611"/>
		<path fill-rule="evenodd" clip-rule="evenodd" fill="#583016" d="M1640.273,427.829c-0.138-0.496-0.242-0.87-0.343-1.245
			c-2.194-7.929-4.389-15.864-6.593-23.793c-0.164-0.593-0.359-1.155,0.672-1.117c1.523,3.051,4.473,4.683,7.004,6.751
			c1.236,1.013,2.534,1.97,3.637,3.116c2.925,3.029,3.18,6.653,2.101,10.513c-0.034,0.126-0.115,0.242-0.191,0.349
			c-0.031,0.049-0.106,0.066-0.325,0.175c0.718-7.234-1.664-12.028-9.832-12.376c0.134,0.487,0.236,0.858,0.339,1.23
			c1.636,5.908,3.254,11.82,4.922,17.721c0.405,1.432,0.332,2.773-0.401,4.051c-1.452,2.548-3.505,4.362-6.474,4.864
			c-2.886,0.488-4.632-1.603-3.753-4.408C1632.215,429.9,1636.193,427.318,1640.273,427.829"/>
		<path fill-rule="evenodd" clip-rule="evenodd" fill="#583016" d="M1182.313,489.675c-0.566-1.136-0.99-1.989-1.421-2.848
			c-9.048-18.155-18.093-36.306-27.157-54.451c-0.675-1.351-1.416-2.614,1.103-3.018c5.117,6.664,13.018,9.216,20.121,13.035
			c3.468,1.864,7.059,3.571,10.269,5.817c8.494,5.95,10.823,14.597,10.03,24.443c-0.027,0.319-0.163,0.635-0.292,0.93
			c-0.059,0.127-0.239,0.206-0.71,0.583c-1.673-17.849-9.692-28.309-29.617-25.304c0.557,1.11,0.978,1.965,1.402,2.81
			c6.743,13.52,13.44,27.063,20.256,40.543c1.658,3.282,2.108,6.555,0.944,9.991c-2.315,6.848-6.423,12.195-13.375,14.813
			c-6.749,2.539-11.951-1.683-11.149-8.884C1163.792,498.481,1172.198,490.365,1182.313,489.675"/>
		
			<path fill="none" stroke="#583016" stroke-width="0.901" stroke-linecap="round" stroke-linejoin="round" stroke-miterlimit="10" d="
			M1825.455,298.291c-79.262,5.114-95.879,129.12-227.557,93.326c-131.68-35.797-192.016-112.501-393.758-112.501
			c-222.446,0-308.102,129.246-308.102,129.246"/>
		
			<path fill="none" stroke="#583016" stroke-width="0.901" stroke-linecap="round" stroke-linejoin="round" stroke-miterlimit="10" d="
			M1825.455,298.291c-78.947,16.07-101.331,113.8-197.06,113.8c-98.449,0-214.121-85.298-396.934-85.298
			c-211.017,0-327.752,150.744-327.752,150.744"/>
		
			<path fill="none" stroke="#583016" stroke-width="0.901" stroke-linecap="round" stroke-linejoin="round" stroke-miterlimit="10" d="
			M915.062,547.604c0,0,156.829-178.347,379.851-172.324c180.81,4.885,238.32,58.831,329.763,54.124
			c99.552-5.124,113.813-113.053,200.78-131.114"/>
		
			<path fill="none" stroke="#583016" stroke-width="0.901" stroke-linecap="round" stroke-linejoin="round" stroke-miterlimit="10" d="
			M932.303,631.901c0,0,128.87-166.64,342.894-200.109c197.115-30.827,288.853,46.782,379.094,6.419
			c85.494-38.239,85.999-121.983,171.167-139.921"/>
		<g display="none">
			<g display="inline">
				<defs>
					<rect id="SVGID_1_" x="1184.554" y="230.649" width="193.483" height="19.254"/>
				</defs>
				<clipPath id="SVGID_2_">
					<use xlink:href="#SVGID_1_"  overflow="visible"/>
				</clipPath>
				<g clip-path="url(#SVGID_2_)">
					<defs>
						<path id="SVGID_3_" d="M1378.037,240.276c0,5.317-43.313,9.627-96.741,9.627c-53.429,0-96.742-4.31-96.742-9.627
							c0-5.316,43.313-9.627,96.742-9.627C1334.724,230.649,1378.037,234.96,1378.037,240.276"/>
					</defs>
					<clipPath id="SVGID_4_">
						<use xlink:href="#SVGID_3_"  overflow="visible"/>
					</clipPath>
				</g>
			</g>
		</g>
	</g>
</g>
</svg>
