<?xml version="1.0" encoding="utf-8"?>
<!-- Generator: Adobe Illustrator 16.0.0, SVG Export Plug-In . SVG Version: 6.00 Build 0)  -->
<!DOCTYPE svg PUBLIC "-//W3C//DTD SVG 1.1//EN" "http://www.w3.org/Graphics/SVG/1.1/DTD/svg11.dtd">
<svg version="1.1" id="Layer_1" xmlns="http://www.w3.org/2000/svg" xmlns:xlink="http://www.w3.org/1999/xlink" x="0px" y="0px"
	 width="965.571px" height="185.714px" viewBox="0 0 965.571 185.714" enable-background="new 0 0 965.571 185.714"
	 xml:space="preserve">
<g>
	<g>
		<g>
			<g>
				<path fill="#FFC0CB" d="M526.084,63.451c0.861-0.38,1.504-1.112,1.827-2.28c0.302-1.15,0.203-2.729-0.603-4.52
					c-0.8-1.776-2.442-3.7-4.808-5.062c-2.353-1.381-5.37-2.064-8.316-1.849c-1.49,0.065-3.355,0.496-5.333,1.282
					c-1.978,0.791-4.021,2.019-5.854,3.611c-1.842,1.583-3.479,3.517-4.775,5.614c-1.305,2.097-2.268,4.348-2.923,6.544
					c-0.625,2.213-0.951,4.359-1.069,6.304c-0.04,0.977-0.045,1.9-0.018,2.761c0.065,0.863,0.112,1.659,0.214,2.383
					c0.113,0.726,0.231,1.378,0.351,1.945c0.125,0.569,0.29,1.056,0.425,1.451c0.283,0.793,0.54,1.221,0.755,1.222
					c0.192,0,0.453-0.431,0.769-1.175c0.324-0.834,0.728-1.865,1.186-3.042c0.249-0.62,0.555-1.277,0.842-1.973
					c0.322-0.686,0.676-1.401,1.049-2.129c0.78-1.442,1.711-2.906,2.76-4.263c1.078-1.336,2.28-2.549,3.53-3.531
					c1.246-0.986,2.535-1.736,3.732-2.251c1.195-0.521,2.294-0.797,3.189-0.925c0.222-0.056,0.434-0.052,0.633-0.08
					c0.198-0.027,0.384-0.058,0.554-0.053c0.174-0.007,0.333-0.022,0.483-0.043c0.145,0.005,0.279,0.001,0.404-0.009
					c0.988-0.067,1.781-0.126,2.578-0.161c0.79-0.035,1.659-0.056,2.612,0.065C522.188,63.482,524.333,64.214,526.084,63.451z"/>
			</g>
			<path fill="#FFC0CB" d="M496.471,47.615c-5.299,12.024-6.722,28.899-6.891,31.123c-0.009,0.143-0.092,0.246-0.19,0.246
				l-5.171,5.855c-0.685,0.775-1.894,0.775-2.578,0l-5.171-5.855c-0.098,0-0.18-0.103-0.191-0.246
				c-0.168-2.224-1.366-17.802-6.89-31.123c-0.043-0.105,10.653-19.223,13.063-23.218c0.243-0.404,0.716-0.404,0.959,0
				C485.818,28.392,496.518,47.511,496.471,47.615z"/>
			<g>
				<path fill="#FFC0CB" d="M439.093,63.451c-0.863-0.38-1.506-1.112-1.828-2.28c-0.302-1.15-0.203-2.729,0.603-4.52
					c0.801-1.776,2.443-3.7,4.809-5.062c2.352-1.381,5.369-2.064,8.316-1.849c1.49,0.065,3.354,0.496,5.333,1.282
					c1.978,0.791,4.021,2.019,5.854,3.611c1.842,1.583,3.479,3.517,4.775,5.614c1.304,2.097,2.268,4.348,2.924,6.544
					c0.624,2.213,0.95,4.359,1.068,6.304c0.04,0.977,0.045,1.9,0.016,2.761c-0.063,0.863-0.11,1.659-0.212,2.383
					c-0.115,0.726-0.232,1.378-0.352,1.945c-0.125,0.569-0.291,1.056-0.426,1.451c-0.282,0.793-0.54,1.221-0.756,1.222
					c-0.189,0-0.452-0.431-0.765-1.175c-0.326-0.834-0.728-1.865-1.187-3.042c-0.247-0.62-0.555-1.277-0.843-1.973
					c-0.322-0.686-0.675-1.401-1.048-2.129c-0.781-1.442-1.711-2.906-2.76-4.263c-1.078-1.336-2.278-2.549-3.528-3.531
					c-1.247-0.986-2.536-1.736-3.732-2.251c-1.196-0.521-2.296-0.797-3.19-0.925c-0.223-0.056-0.435-0.052-0.632-0.08
					c-0.199-0.027-0.386-0.058-0.557-0.053c-0.173-0.007-0.333-0.022-0.482-0.043c-0.145,0.005-0.279,0.001-0.403-0.009
					c-0.989-0.067-1.783-0.126-2.579-0.161c-0.791-0.035-1.66-0.056-2.612,0.065C442.988,63.482,440.845,64.214,439.093,63.451z"/>
			</g>
		</g>
		<g>
			<path fill="#FFC0CB" d="M482.82,89.493c0,0-9.64,20.464,0,20.499C492.664,110.025,483.389,88.267,482.82,89.493z"/>
			<path fill="#FFC0CB" d="M488.063,89.542c0,0,6.442,15.685,11.337,10.369C504.397,94.486,487.671,88.607,488.063,89.542z"/>
			<path fill="#FFC0CB" d="M477.59,90.137c0,0-16.729,2.762-12.647,8.724C469.111,104.95,478.59,89.966,477.59,90.137z"/>
		</g>
	</g>
	<g>
		<path fill="#FFC0CB" d="M865.536,50.465c-1.019-4.407-2.636-8.45-4.601-11.986c-1.965-3.542-4.265-6.578-6.605-9.169
			c-2.317-2.624-4.965-4.86-7.666-6.937c-0.691-0.495-1.382-0.989-2.074-1.481c-0.335-0.252-0.701-0.485-1.076-0.713l-1.113-0.69
			c-0.733-0.48-1.505-0.868-2.266-1.273l-1.145-0.603l-1.168-0.533c-3.109-1.425-6.308-2.513-9.524-3.27
			c-3.216-0.765-6.439-1.301-9.644-1.556c-6.406-0.525-12.707-0.177-18.743,0.871c-3.019,0.529-5.978,1.201-8.847,2.081
			c-1.442,0.404-2.846,0.916-4.248,1.402c-0.699,0.244-1.38,0.54-2.068,0.806c-0.686,0.271-1.372,0.538-2.037,0.853
			c-0.668,0.302-1.336,0.605-2.001,0.905c-0.659,0.319-1.304,0.661-1.952,0.989l-0.969,0.496l-0.947,0.536
			c-0.627,0.362-1.252,0.721-1.876,1.079c-0.605,0.391-1.21,0.781-1.811,1.168l-0.899,0.583l-0.871,0.626
			c-0.575,0.42-1.149,0.841-1.722,1.257c-0.553,0.447-1.101,0.893-1.65,1.338c-0.555,0.433-1.078,0.906-1.593,1.386
			c-0.516,0.476-1.042,0.938-1.54,1.425c-0.965,1.016-1.971,1.97-2.837,3.051c-1.839,2.063-3.365,4.351-4.764,6.641
			c-0.318,0.594-0.637,1.184-0.952,1.773l-0.468,0.882l-0.407,0.917c-0.27,0.61-0.535,1.217-0.802,1.822
			c-0.22,0.625-0.438,1.246-0.655,1.865l-0.319,0.928c-0.098,0.313-0.17,0.632-0.255,0.945c-0.161,0.633-0.324,1.259-0.483,1.884
			c-0.127,0.632-0.229,1.27-0.339,1.898l-0.162,0.944c-0.04,0.314-0.061,0.633-0.092,0.947c-0.056,0.632-0.11,1.258-0.164,1.883
			c-0.008,0.626-0.015,1.251-0.021,1.871l-0.005,0.928l0.067,0.922c0.047,0.61,0.093,1.219,0.141,1.823
			c0.092,0.598,0.183,1.193,0.274,1.785c0.05,0.298,0.089,0.593,0.147,0.884l0.204,0.868c0.139,0.574,0.268,1.148,0.416,1.713
			c0.18,0.557,0.359,1.108,0.534,1.657c0.093,0.274,0.176,0.549,0.271,0.817l0.325,0.793c0.217,0.525,0.434,1.046,0.647,1.566
			c0.254,0.5,0.505,0.998,0.756,1.494l0.374,0.738c0.134,0.238,0.281,0.471,0.421,0.706c0.284,0.465,0.564,0.929,0.845,1.389
			c0.293,0.451,0.618,0.877,0.923,1.311c0.592,0.88,1.295,1.663,1.954,2.453c2.706,3.114,5.894,5.449,9.095,7.117
			c3.216,1.663,6.491,2.608,9.535,3c3.046,0.382,5.867,0.303,8.313-0.163c0.306-0.049,0.609-0.089,0.905-0.148
			c0.292-0.071,0.582-0.144,0.864-0.214c0.565-0.143,1.112-0.281,1.645-0.417c1.032-0.362,1.999-0.681,2.867-1.042
			c0.837-0.395,1.617-0.764,2.345-1.108c0.265-0.154,0.508-0.301,0.748-0.445c5.378-0.923,9.475-5.598,9.475-11.239
			c0-6.304-5.11-11.415-11.415-11.415c-6.305,0-11.416,5.111-11.416,11.415c0,4.944,3.147,9.14,7.542,10.728
			c-0.277,0.056-0.548,0.111-0.837,0.172c-0.49,0.06-0.996,0.122-1.515,0.185c-0.257,0.035-0.522,0.067-0.786,0.102
			c-0.268,0.021-0.542,0.023-0.817,0.038c-2.196,0.171-4.643-0.017-7.211-0.567c-2.566-0.565-5.257-1.579-7.851-3.163
			c-2.585-1.588-5.114-3.697-7.209-6.417c-0.507-0.692-1.056-1.364-1.503-2.125c-0.231-0.375-0.482-0.737-0.706-1.123
			c-0.21-0.393-0.422-0.788-0.634-1.184c-0.105-0.199-0.217-0.395-0.319-0.598l-0.273-0.625c-0.185-0.415-0.374-0.833-0.56-1.255
			c-0.154-0.433-0.31-0.871-0.465-1.309l-0.235-0.659c-0.068-0.223-0.123-0.453-0.188-0.679c-0.123-0.455-0.246-0.909-0.373-1.369
			c-0.09-0.467-0.18-0.936-0.271-1.407l-0.136-0.71c-0.034-0.239-0.053-0.48-0.082-0.721c-0.054-0.482-0.108-0.967-0.163-1.453
			c-0.016-0.491-0.031-0.983-0.047-1.478l-0.025-0.743l0.038-0.748c0.023-0.498,0.049-0.999,0.074-1.503
			c0.065-0.5,0.131-1.003,0.198-1.509c0.034-0.253,0.058-0.507,0.099-0.761l0.164-0.753c0.112-0.504,0.208-1.011,0.325-1.518
			c0.152-0.498,0.301-0.999,0.453-1.503c0.077-0.251,0.144-0.507,0.228-0.755l0.292-0.743c0.194-0.496,0.386-0.994,0.581-1.494
			c0.236-0.485,0.471-0.972,0.708-1.461l0.353-0.737l0.415-0.717c0.276-0.478,0.554-0.958,0.833-1.441
			c4.76-7.574,12.751-13.869,22.378-17.798c0.592-0.268,1.206-0.491,1.82-0.721c0.616-0.223,1.222-0.474,1.849-0.679
			c1.257-0.405,2.508-0.842,3.803-1.179c2.567-0.74,5.223-1.296,7.92-1.728c5.396-0.858,11.012-1.09,16.611-0.578
			c2.803,0.248,5.588,0.744,8.328,1.415c2.744,0.663,5.415,1.601,7.956,2.781l0.956,0.437l0.923,0.496
			c0.615,0.332,1.243,0.643,1.818,1.03l0.886,0.553c0.297,0.178,0.592,0.366,0.885,0.589c0.587,0.423,1.177,0.847,1.768,1.271
			c2.286,1.774,4.521,3.654,6.431,5.832c1.936,2.147,3.827,4.628,5.438,7.508c1.612,2.876,2.939,6.147,3.794,9.749
			c0.858,3.598,1.242,7.524,1.052,11.635c-0.009,1.029-0.156,2.064-0.247,3.115c-0.108,1.048-0.313,2.099-0.469,3.165
			c-0.438,2.115-0.929,4.271-1.661,6.407c-0.668,2.155-1.582,4.276-2.551,6.411c-1.049,2.097-2.159,4.217-3.503,6.244
			c-1.291,2.057-2.791,4.023-4.381,5.958c-0.831,0.938-1.628,1.916-2.531,2.81c-0.443,0.453-0.873,0.926-1.333,1.37
			c-0.463,0.438-0.931,0.878-1.4,1.318c-0.458,0.451-0.954,0.866-1.448,1.284c-0.498,0.418-0.977,0.842-1.493,1.26
			c-1.068,0.83-2.144,1.663-3.225,2.501c-0.545,0.413-1.075,0.853-1.635,1.25c-0.56,0.395-1.121,0.79-1.684,1.186
			c-0.563,0.397-1.128,0.795-1.693,1.196s-1.13,0.806-1.722,1.165c-1.172,0.74-2.35,1.486-3.534,2.236
			c-1.193,0.728-2.434,1.378-3.658,2.079c-1.214,0.72-2.496,1.316-3.77,1.939c-0.638,0.312-1.278,0.625-1.918,0.938
			c-0.638,0.318-1.311,0.562-1.967,0.848c-0.659,0.275-1.32,0.552-1.983,0.829c-0.662,0.283-1.325,0.563-2.012,0.788
			c-1.363,0.478-2.73,0.958-4.104,1.441c-1.401,0.407-2.809,0.817-4.219,1.226c-0.701,0.225-1.425,0.372-2.146,0.545
			c-0.721,0.168-1.441,0.338-2.166,0.509c-5.806,1.282-11.818,2.18-17.972,2.718c-1.532,0.158-3.09,0.23-4.638,0.35l-2.329,0.163
			l-2.345,0.107c-1.569,0.067-3.137,0.132-4.71,0.199c-1.577,0.034-3.16,0.069-4.743,0.103c-1.583,0.045-3.172,0.058-4.768,0.06
			c-1.593,0.007-3.189,0.014-4.789,0.021c-1.577-0.036-3.16-0.072-4.741-0.11l-2.374-0.054c-0.793-0.023-1.584-0.096-2.376-0.141
			c-1.586-0.104-3.172-0.207-4.76-0.311c-1.588-0.119-3.173-0.314-4.762-0.469c-3.179-0.279-6.345-0.78-9.522-1.206
			c-1.588-0.208-3.165-0.52-4.748-0.775c-1.581-0.284-3.169-0.505-4.745-0.841c-3.151-0.63-6.309-1.22-9.442-1.956
			c-6.286-1.362-12.513-2.997-18.705-4.643c-6.182-1.711-12.324-3.466-18.405-5.306c-6.081-1.818-12.113-3.68-18.088-5.503
			c-5.967-1.829-11.925-3.6-17.738-5.335c-11.635-3.501-22.954-7.068-33.982-9.937c-5.507-1.45-10.955-2.68-16.292-3.732
			c-5.342-1.042-10.605-1.773-15.721-2.31c-10.253-0.92-19.991-0.699-28.716,0.861c-4.36,0.769-8.486,1.845-12.242,3.341
			c-3.745,1.494-7.135,3.458-9.765,5.976c-1.31,1.257-2.434,2.641-3.267,4.127c-0.839,1.485-1.402,3.037-1.75,4.562
			c-0.07,0.384-0.139,0.764-0.208,1.139c-0.074,0.375-0.078,0.755-0.119,1.125c-0.082,0.739-0.086,1.478-0.049,2.188
			c0.085,1.425,0.351,2.758,0.735,3.977c0.771,2.438,1.996,4.426,3.397,5.822c1.396,1.411,2.99,2.175,4.325,2.405
			c1.342,0.245,2.383,0.06,3.041-0.108c0.335-0.076,0.574-0.177,0.737-0.239c0.159-0.065,0.239-0.105,0.231-0.118
			c-0.013-0.045-0.349,0.054-1.01,0.152c-0.656,0.092-1.665,0.19-2.905-0.12c-1.235-0.293-2.669-1.076-3.913-2.456
			c-1.252-1.367-2.329-3.291-2.965-5.614c-0.319-1.16-0.521-2.423-0.554-3.745c-0.008-0.663,0.018-1.334,0.119-2.026
			c0.053-0.342,0.065-0.697,0.147-1.041c0.074-0.346,0.15-0.695,0.228-1.048c0.371-1.396,0.932-2.796,1.74-4.127
			c0.804-1.335,1.874-2.57,3.118-3.696c2.503-2.253,5.744-4.021,9.374-5.35c3.632-1.332,7.653-2.268,11.916-2.903
			c8.54-1.295,18.037-1.277,28.041-0.141c4.999,0.646,10.138,1.481,15.37,2.624c5.228,1.154,10.571,2.483,15.987,4.037
			c10.846,3.075,22.022,6.856,33.635,10.61c5.824,1.866,11.667,3.733,17.606,5.68c5.934,1.939,11.932,3.917,18.008,5.86
			c6.064,1.961,12.224,3.847,18.432,5.689c6.229,1.78,12.505,3.549,18.879,5.048c3.171,0.804,6.387,1.467,9.596,2.166
			c1.597,0.368,3.224,0.625,4.837,0.943c1.617,0.29,3.226,0.636,4.854,0.878c3.254,0.493,6.496,1.061,9.773,1.405
			c1.636,0.188,3.266,0.417,4.904,0.567c1.641,0.136,3.281,0.27,4.92,0.403c0.82,0.06,1.637,0.148,2.458,0.185l2.466,0.099
			c1.641,0.065,3.281,0.131,4.918,0.194c1.621,0.018,3.238,0.038,4.854,0.056c1.615,0.023,3.227,0.036,4.843,0.016
			c1.615-0.009,3.227-0.018,4.835-0.027c1.611-0.043,3.222-0.087,4.828-0.13l2.408-0.071l2.408-0.13
			c1.604-0.099,3.202-0.15,4.801-0.29c6.393-0.459,12.744-1.303,18.966-2.585c0.775-0.17,1.551-0.34,2.326-0.511
			c0.773-0.174,1.549-0.322,2.31-0.55c1.528-0.421,3.05-0.841,4.568-1.259c1.496-0.502,2.984-1.001,4.469-1.5
			c0.747-0.234,1.472-0.527,2.195-0.822c0.724-0.292,1.447-0.581,2.169-0.871c0.715-0.301,1.448-0.558,2.147-0.895
			c0.699-0.33,1.398-0.657,2.094-0.985c1.395-0.657,2.796-1.293,4.118-2.05c1.333-0.735,2.688-1.427,3.984-2.195
			c1.282-0.79,2.559-1.574,3.828-2.354c0.645-0.378,1.251-0.802,1.859-1.22c0.608-0.418,1.216-0.835,1.822-1.252
			c0.606-0.415,1.21-0.831,1.813-1.244c0.602-0.416,1.167-0.869,1.748-1.3c1.155-0.873,2.304-1.742,3.444-2.604
			c0.57-0.449,1.14-0.938,1.704-1.403c0.568-0.469,1.137-0.937,1.666-1.441c0.539-0.494,1.075-0.989,1.611-1.481
			c0.529-0.5,1.026-1.028,1.538-1.539c1.036-1.009,1.965-2.11,2.921-3.169c1.838-2.182,3.571-4.412,5.078-6.75
			c1.561-2.303,2.868-4.721,4.096-7.128c1.148-2.447,2.22-4.889,3.028-7.39C867.228,69.535,867.586,59.274,865.536,50.465z"/>
		<g>
			<path fill="#FFC0CB" d="M578.567,117.461c-0.13-0.429,0.15-0.947,0.851-1.552c0.349-0.302,0.805-0.626,1.363-0.97
				c0.28-0.169,0.583-0.359,0.917-0.523c0.335-0.146,0.697-0.295,1.084-0.446c3.081-1.349,7.943-2.208,13.849-1.951
				c5.917,0.234,12.724,1.762,19.833,4.218c3.537,1.255,7.166,2.726,10.816,4.372c3.647,1.655,7.3,3.455,10.987,5.292
				c14.881,7.224,46.786,25.832,78.439,32.983c15.747,3.706,31.046,5.072,42.301,5.545c2.816,0.095,5.382,0.244,7.646,0.296
				c2.264,0.013,4.227,0.039,5.839,0.082c3.222,0.083,5.042,0.22,5.06,0.425c0.015,0.179-1.764,0.53-4.966,1.014
				c-1.601,0.24-3.557,0.517-5.824,0.817c-2.268,0.266-4.853,0.445-7.7,0.691c-11.371,0.885-27.108,1.058-43.792-1.371
				c-8.309-1.306-16.842-3.097-25.082-5.458c-2.068-0.563-4.082-1.248-6.11-1.865c-1.012-0.316-2.021-0.632-3.023-0.945
				c-0.99-0.346-1.977-0.69-2.957-1.03c-1.965-0.697-3.906-1.386-5.816-2.063c-1.895-0.734-3.758-1.459-5.589-2.169
				c-1.844-0.701-3.627-1.437-5.364-2.173c-1.749-0.733-3.455-1.451-5.118-2.15c-3.294-1.45-6.425-2.837-9.328-4.159
				c-5.788-2.667-10.699-5.02-14.406-6.876c-3.63-1.849-7.176-3.652-10.674-5.433c-3.396-1.717-6.655-3.296-9.769-4.737
				c-6.226-2.805-11.889-4.975-16.733-6.239c-4.835-1.278-8.865-1.873-11.749-2.129l-1.043-0.158l-0.919-0.092
				c-0.575-0.067-1.083-0.155-1.508-0.27C579.231,118.208,578.697,117.889,578.567,117.461z"/>
		</g>
		<g>
			<path fill="#FFC0CB" d="M901.588,54.431c1.177,0.992,1.148,3.18,0.188,5.947c-0.963,2.76-2.865,6.13-5.57,9.439
				c-2.691,3.285-9.642,10.162-16.717,15.363c-3.511,2.613-7.057,4.747-9.788,6.032c-1.343,0.673-2.514,1.103-3.341,1.358
				c-0.828,0.255-1.327,0.326-1.421,0.178c-0.081-0.13,0.192-0.558,0.739-1.208c0.545-0.649,1.37-1.506,2.314-2.609
				c1.936-2.147,4.444-5.12,6.925-8.433c4.991-6.589,10.023-14.457,12.689-17.712c2.649-3.239,5.535-5.851,8.087-7.377
				C898.238,53.878,900.421,53.446,901.588,54.431z"/>
		</g>
		<g>
			<path fill="#FFC0CB" d="M944.907,89.549c-0.043,3.858-8.206,6.71-17.86,7.038c-4.857,0.148-15.628-0.526-25.254,0.248
				c-4.813,0.346-9.359,0.985-12.722,1.595c-1.704,0.247-3.079,0.549-4.089,0.658c-1.007,0.119-1.621,0.099-1.717-0.098
				c-0.084-0.172,0.3-0.625,1.069-1.299c0.773-0.665,1.908-1.608,3.413-2.555c2.958-2.012,7.3-4.308,12.181-6.235
				c4.873-1.945,10.261-3.49,15.055-4.498c4.794-1.015,8.987-1.556,11.56-1.64c5.159-0.185,9.788,0.578,13.08,1.853
				C942.925,85.882,944.928,87.644,944.907,89.549z"/>
		</g>
		<g>
			<path fill="#FFC0CB" d="M866.797,113.032c0,0-1.922,1.673-5.246,4.569c-3.433,2.888-8.563,6.892-15.281,11.367
				c-6.771,4.368-15.136,9.218-25.004,13.491c-9.862,4.252-21.23,7.899-33.535,10.013c-12.302,2.126-24.321,2.399-35.071,1.302
				c-0.672-0.059-1.34-0.097-2.002-0.174c-0.662-0.097-1.317-0.193-1.971-0.287c-1.296-0.196-2.579-0.388-3.848-0.578
				c-1.261-0.213-2.512-0.337-3.722-0.624c-1.206-0.271-2.396-0.538-3.569-0.803c-2.336-0.549-4.578-0.989-6.75-1.698
				c-1.088-0.307-2.124-0.665-3.129-1.029c-1.011-0.353-1.995-0.7-2.93-1.083c-3.785-1.461-7.07-2.935-9.984-4.144
				c-1.454-0.615-2.809-1.169-4.065-1.647c-1.249-0.513-2.41-0.906-3.457-1.27c-0.525-0.185-1.023-0.36-1.49-0.527
				c-0.493-0.166-0.938-0.346-1.34-0.541c-0.8-0.395-1.358-0.735-1.939-0.805c-0.556-0.086-1.001-0.028-1.295,0.019
				c-0.297,0.044-0.449,0.065-0.449,0.065s0.145-0.055,0.429-0.16c0.283-0.106,0.725-0.262,1.339-0.291
				c0.608-0.06,1.401,0.214,2.193,0.433c0.796,0.227,1.74,0.313,2.87,0.511c1.116,0.174,2.362,0.366,3.698,0.665
				c1.349,0.266,2.802,0.598,4.35,0.981c3.104,0.744,6.597,1.722,10.417,2.635c0.954,0.248,1.931,0.453,2.927,0.665
				c0.996,0.223,2.012,0.438,3.046,0.596c2.036,0.409,4.281,0.589,6.552,0.871c1.14,0.136,2.296,0.273,3.469,0.415
				c1.17,0.159,2.382,0.156,3.597,0.249c1.216,0.074,2.45,0.15,3.698,0.227c0.623,0.04,1.253,0.081,1.884,0.121
				c0.633,0.023,1.272,0.008,1.914,0.015c10.263,0.263,21.534-0.516,33.19-2.528c11.657-2.005,22.604-4.958,32.375-8.313
				c9.768-3.378,18.352-7.131,25.502-10.487c7.096-3.461,12.755-6.528,16.621-8.745
				C864.594,114.305,866.797,113.032,866.797,113.032z"/>
		</g>
		<g>
			<path fill="#FFC0CB" d="M907.773,128.675c-3.258,1.945-7.967,0.449-11.683-3.206c-0.927-0.918-2.228-2.615-3.792-4.491
				c-1.556-1.881-3.381-3.94-5.236-5.503c-1.855-1.578-3.688-2.603-5.354-2.806c-1.681-0.252-3.064,0.265-3.368-0.099
				c-0.129-0.144-0.055-0.527,0.257-1.152c0.327-0.599,0.96-1.401,2.028-2.129c1.058-0.751,2.567-1.3,4.242-1.53
				c1.677-0.231,3.493-0.142,5.263,0.165c3.555,0.616,6.933,2.034,9.673,3.519c2.752,1.491,4.889,3.079,6.041,4.222
				c2.305,2.287,3.653,5.042,3.968,7.481C910.142,125.589,909.391,127.673,907.773,128.675z"/>
		</g>
	</g>
	<g>
		<path fill="#FFC0CB" d="M100.313,50.375c1.02-4.41,2.635-8.45,4.602-11.987c1.964-3.544,4.264-6.579,6.604-9.168
			c2.318-2.626,4.967-4.863,7.667-6.938c0.692-0.495,1.382-0.989,2.072-1.483c0.336-0.25,0.703-0.485,1.078-0.713l1.113-0.688
			c0.732-0.48,1.503-0.869,2.266-1.273l1.145-0.603l1.168-0.532c3.109-1.425,6.308-2.514,9.524-3.272
			c3.214-0.763,6.438-1.298,9.642-1.554c6.407-0.525,12.708-0.178,18.743,0.871c3.018,0.527,5.978,1.201,8.846,2.081
			c1.443,0.404,2.847,0.917,4.249,1.402c0.7,0.244,1.381,0.538,2.07,0.806c0.685,0.271,1.371,0.538,2.036,0.853
			c0.669,0.303,1.336,0.605,2.002,0.906c0.657,0.318,1.304,0.659,1.952,0.987l0.969,0.496l0.945,0.538
			c0.627,0.36,1.253,0.721,1.876,1.079c0.606,0.39,1.21,0.779,1.813,1.167l0.899,0.584l0.87,0.627
			c0.576,0.42,1.151,0.838,1.723,1.255c0.551,0.447,1.102,0.895,1.649,1.338c0.555,0.435,1.078,0.907,1.593,1.386
			c0.516,0.478,1.042,0.938,1.54,1.426c0.964,1.016,1.971,1.971,2.839,3.052c1.838,2.063,3.365,4.348,4.762,6.641
			c0.319,0.592,0.637,1.185,0.954,1.773l0.466,0.882l0.408,0.916c0.268,0.611,0.534,1.217,0.8,1.82
			c0.219,0.625,0.438,1.248,0.656,1.867l0.32,0.927c0.095,0.312,0.169,0.632,0.254,0.946c0.162,0.63,0.323,1.258,0.484,1.883
			c0.126,0.632,0.227,1.268,0.338,1.898l0.16,0.942c0.041,0.317,0.062,0.634,0.094,0.949c0.054,0.63,0.111,1.258,0.165,1.883
			c0.006,0.626,0.013,1.25,0.019,1.87l0.004,0.928l-0.066,0.92c-0.047,0.612-0.094,1.221-0.14,1.824
			c-0.092,0.6-0.185,1.195-0.276,1.788c-0.049,0.295-0.089,0.592-0.146,0.884l-0.203,0.865c-0.139,0.576-0.27,1.15-0.417,1.713
			c-0.179,0.556-0.357,1.108-0.534,1.659c-0.092,0.274-0.175,0.547-0.272,0.817l-0.324,0.793c-0.218,0.525-0.435,1.047-0.649,1.565
			c-0.252,0.501-0.503,1-0.753,1.494l-0.376,0.737c-0.135,0.241-0.282,0.473-0.421,0.706c-0.284,0.467-0.565,0.929-0.845,1.389
			c-0.293,0.453-0.618,0.878-0.923,1.311c-0.593,0.882-1.294,1.663-1.954,2.452c-2.707,3.115-5.892,5.451-9.095,7.117
			c-3.215,1.664-6.489,2.609-9.534,3.002c-3.046,0.382-5.868,0.302-8.313-0.163c-0.307-0.051-0.61-0.089-0.905-0.148
			c-0.294-0.072-0.582-0.143-0.866-0.214c-0.563-0.143-1.11-0.282-1.643-0.417c-1.032-0.362-1.999-0.683-2.868-1.041
			c-0.836-0.395-1.617-0.764-2.346-1.11c-0.263-0.154-0.506-0.298-0.747-0.443c-5.378-0.924-9.474-5.598-9.474-11.239
			c0-6.304,5.111-11.417,11.415-11.417c6.305,0,11.416,5.112,11.416,11.417c0,4.942-3.148,9.14-7.543,10.726
			c0.278,0.058,0.55,0.11,0.836,0.174c0.491,0.059,0.997,0.121,1.515,0.184c0.259,0.033,0.521,0.067,0.788,0.102
			c0.267,0.022,0.541,0.024,0.815,0.037c2.196,0.171,4.644-0.015,7.212-0.565c2.565-0.565,5.256-1.581,7.851-3.164
			c2.583-1.588,5.114-3.697,7.209-6.418c0.507-0.69,1.057-1.362,1.503-2.125c0.231-0.373,0.484-0.735,0.705-1.121
			c0.21-0.393,0.422-0.788,0.635-1.184c0.105-0.199,0.217-0.395,0.318-0.598l0.275-0.625c0.185-0.417,0.372-0.833,0.559-1.254
			c0.154-0.435,0.309-0.872,0.464-1.31l0.237-0.66c0.068-0.224,0.123-0.452,0.187-0.679c0.123-0.455,0.249-0.911,0.373-1.369
			c0.091-0.467,0.18-0.937,0.271-1.409l0.138-0.708c0.035-0.239,0.054-0.481,0.083-0.721c0.053-0.483,0.107-0.967,0.163-1.454
			c0.015-0.489,0.031-0.981,0.046-1.476l0.025-0.742l-0.039-0.748c-0.023-0.499-0.048-1-0.072-1.503
			c-0.065-0.501-0.131-1.005-0.198-1.51c-0.035-0.252-0.059-0.505-0.101-0.758l-0.163-0.754c-0.11-0.503-0.208-1.01-0.326-1.517
			c-0.15-0.498-0.3-1-0.452-1.503c-0.078-0.251-0.142-0.507-0.229-0.757l-0.292-0.743c-0.191-0.495-0.385-0.992-0.579-1.492
			c-0.236-0.486-0.472-0.973-0.709-1.464l-0.354-0.735l-0.413-0.717c-0.277-0.478-0.555-0.96-0.835-1.441
			c-4.761-7.573-12.75-13.869-22.378-17.798c-0.591-0.268-1.206-0.49-1.82-0.721c-0.615-0.225-1.222-0.474-1.848-0.681
			c-1.256-0.405-2.509-0.842-3.804-1.177c-2.565-0.74-5.221-1.298-7.918-1.729c-5.397-0.856-11.012-1.09-16.613-0.576
			c-2.803,0.249-5.586,0.745-8.326,1.413c-2.744,0.664-5.416,1.602-7.957,2.782l-0.957,0.438l-0.921,0.495
			c-0.615,0.332-1.245,0.645-1.821,1.032l-0.884,0.553c-0.296,0.177-0.592,0.365-0.885,0.588c-0.588,0.424-1.177,0.847-1.768,1.271
			c-2.287,1.775-4.521,3.652-6.431,5.83c-1.938,2.147-3.827,4.63-5.438,7.509c-1.613,2.876-2.94,6.145-3.795,9.747
			c-0.857,3.6-1.242,7.526-1.053,11.637c0.01,1.028,0.158,2.064,0.248,3.115c0.107,1.046,0.312,2.099,0.468,3.166
			c0.438,2.114,0.928,4.271,1.662,6.407c0.667,2.155,1.583,4.275,2.551,6.409c1.049,2.099,2.158,4.219,3.502,6.244
			c1.291,2.059,2.792,4.025,4.38,5.959c0.832,0.936,1.629,1.917,2.532,2.811c0.445,0.453,0.873,0.926,1.333,1.369
			c0.465,0.438,0.933,0.876,1.401,1.318c0.459,0.451,0.954,0.866,1.448,1.282c0.498,0.418,0.976,0.844,1.493,1.263
			c1.069,0.827,2.145,1.662,3.226,2.5c0.544,0.413,1.075,0.853,1.634,1.25c0.56,0.393,1.121,0.79,1.684,1.187
			c0.563,0.396,1.127,0.794,1.693,1.193c0.565,0.402,1.129,0.807,1.722,1.166c1.172,0.74,2.35,1.487,3.533,2.234
			c1.193,0.73,2.436,1.38,3.66,2.08c1.214,0.72,2.495,1.318,3.771,1.941c0.637,0.311,1.276,0.623,1.917,0.936
			c0.637,0.321,1.311,0.562,1.965,0.847c0.661,0.277,1.322,0.555,1.985,0.831c0.661,0.283,1.324,0.563,2.011,0.786
			c1.363,0.48,2.731,0.96,4.105,1.443c1.4,0.407,2.807,0.817,4.218,1.227c0.7,0.222,1.426,0.371,2.146,0.543
			c0.72,0.17,1.442,0.339,2.165,0.509c5.809,1.282,11.82,2.182,17.974,2.719c1.533,0.159,3.088,0.229,4.637,0.351l2.331,0.163
			l2.345,0.105c1.567,0.067,3.137,0.134,4.709,0.201c1.579,0.034,3.16,0.069,4.744,0.104c1.583,0.043,3.173,0.058,4.767,0.058
			c1.594,0.009,3.19,0.016,4.788,0.024c1.579-0.037,3.16-0.075,4.742-0.111l2.375-0.056c0.791-0.021,1.583-0.094,2.375-0.139
			c1.585-0.104,3.173-0.207,4.76-0.31c1.587-0.122,3.173-0.317,4.761-0.471c3.18-0.277,6.346-0.78,9.521-1.205
			c1.589-0.208,3.166-0.521,4.75-0.777c1.581-0.282,3.169-0.503,4.744-0.838c3.152-0.631,6.311-1.223,9.444-1.958
			c6.285-1.36,12.511-2.995,18.705-4.642c6.182-1.711,12.323-3.466,18.403-5.306c6.083-1.818,12.115-3.682,18.089-5.505
			c5.968-1.828,11.925-3.6,17.738-5.333c11.636-3.5,22.956-7.068,33.982-9.938c5.508-1.45,10.955-2.68,16.293-3.73
			c5.342-1.042,10.604-1.772,15.72-2.309c10.253-0.919,19.99-0.699,28.715,0.86c4.362,0.768,8.486,1.845,12.242,3.339
			c3.746,1.496,7.135,3.459,9.767,5.977c1.308,1.258,2.433,2.642,3.267,4.129c0.837,1.485,1.4,3.037,1.75,4.56
			c0.07,0.384,0.139,0.764,0.208,1.141c0.075,0.375,0.078,0.756,0.119,1.125c0.082,0.737,0.085,1.476,0.048,2.188
			c-0.085,1.425-0.352,2.758-0.736,3.977c-0.771,2.438-1.995,4.424-3.397,5.823c-1.396,1.411-2.989,2.175-4.324,2.405
			c-1.342,0.245-2.383,0.058-3.041-0.109c-0.334-0.076-0.575-0.179-0.736-0.241c-0.161-0.063-0.239-0.104-0.233-0.118
			c0.013-0.043,0.351,0.057,1.012,0.154c0.655,0.093,1.664,0.188,2.904-0.119c1.236-0.293,2.668-1.076,3.914-2.456
			c1.251-1.367,2.329-3.291,2.965-5.615c0.317-1.161,0.52-2.422,0.552-3.745c0.009-0.661-0.016-1.333-0.119-2.025
			c-0.051-0.344-0.063-0.697-0.147-1.042c-0.074-0.348-0.15-0.697-0.227-1.05c-0.371-1.395-0.933-2.796-1.74-4.127
			c-0.804-1.333-1.875-2.568-3.12-3.694c-2.502-2.255-5.745-4.022-9.372-5.352c-3.634-1.33-7.653-2.268-11.916-2.903
			c-8.542-1.295-18.038-1.275-28.042-0.14c-4.999,0.645-10.138,1.479-15.369,2.625c-5.229,1.153-10.57,2.482-15.987,4.036
			c-10.846,3.075-22.022,6.856-33.636,10.609c-5.822,1.867-11.667,3.732-17.605,5.679c-5.935,1.94-11.931,3.919-18.006,5.86
			c-6.066,1.963-12.224,3.847-18.432,5.69c-6.232,1.778-12.506,3.549-18.881,5.049c-3.171,0.804-6.387,1.465-9.594,2.164
			c-1.598,0.37-3.225,0.626-4.837,0.944c-1.619,0.289-3.225,0.637-4.854,0.879c-3.254,0.493-6.496,1.062-9.774,1.405
			c-1.636,0.187-3.265,0.415-4.904,0.567c-1.641,0.134-3.282,0.268-4.92,0.404c-0.82,0.06-1.638,0.148-2.458,0.185l-2.464,0.1
			c-1.643,0.063-3.283,0.128-4.921,0.194c-1.62,0.018-3.237,0.036-4.852,0.054c-1.615,0.025-3.228,0.038-4.844,0.018
			c-1.614-0.009-3.225-0.018-4.834-0.029c-1.612-0.043-3.222-0.085-4.828-0.129l-2.408-0.07l-2.408-0.132
			c-1.604-0.1-3.202-0.148-4.802-0.288c-6.392-0.462-12.744-1.306-18.965-2.586c-0.777-0.17-1.553-0.34-2.327-0.511
			c-0.773-0.174-1.549-0.324-2.31-0.55c-1.528-0.422-3.051-0.842-4.568-1.26c-1.495-0.5-2.985-1-4.469-1.498
			c-0.748-0.234-1.472-0.527-2.195-0.823c-0.725-0.291-1.447-0.581-2.169-0.873c-0.716-0.3-1.451-0.558-2.148-0.893
			c-0.699-0.329-1.399-0.659-2.095-0.986c-1.395-0.656-2.794-1.292-4.117-2.049c-1.333-0.737-2.689-1.428-3.984-2.195
			c-1.284-0.79-2.56-1.573-3.83-2.354c-0.644-0.38-1.25-0.803-1.858-1.223c-0.609-0.418-1.217-0.835-1.823-1.25
			c-0.606-0.417-1.211-0.832-1.813-1.246c-0.601-0.415-1.165-0.868-1.748-1.298c-1.154-0.873-2.304-1.742-3.445-2.604
			c-0.57-0.451-1.138-0.939-1.704-1.404c-0.568-0.469-1.136-0.936-1.666-1.441c-0.539-0.495-1.076-0.989-1.611-1.481
			c-0.529-0.5-1.026-1.029-1.538-1.54c-1.037-1.011-1.963-2.11-2.92-3.169c-1.839-2.182-3.573-4.412-5.08-6.75
			c-1.559-2.303-2.868-4.721-4.094-7.128c-1.148-2.448-2.222-4.891-3.03-7.392C98.622,69.444,98.265,59.183,100.313,50.375z"/>
		<g>
			<path fill="#FFC0CB" d="M387.282,117.369c-0.13,0.428-0.664,0.748-1.516,0.975c-0.426,0.112-0.932,0.203-1.509,0.27l-0.917,0.092
				l-1.043,0.158c-2.886,0.255-6.915,0.852-11.75,2.128c-4.845,1.266-10.507,3.436-16.735,6.241
				c-3.113,1.439-6.373,3.021-9.768,4.737c-3.499,1.78-7.043,3.584-10.675,5.431c-3.705,1.858-8.616,4.212-14.401,6.884
				c-2.9,1.325-6.031,2.716-9.326,4.171c-1.661,0.698-3.367,1.418-5.114,2.153c-1.737,0.74-3.521,1.478-5.364,2.178
				c-1.829,0.714-3.693,1.438-5.585,2.175c-1.91,0.682-3.851,1.371-5.815,2.068c-0.98,0.344-1.966,0.688-2.958,1.034
				c-1.002,0.315-2.01,0.632-3.022,0.951c-2.027,0.619-4.041,1.306-6.109,1.87c-8.238,2.371-16.771,4.169-25.083,5.482
				c-16.689,2.442-32.434,2.277-43.81,1.384c-2.847-0.251-5.433-0.434-7.702-0.704c-2.267-0.306-4.224-0.587-5.824-0.834
				c-3.201-0.496-4.979-0.867-4.961-1.071c0.015-0.181,1.834-0.3,5.057-0.369c1.611-0.032,3.573-0.054,5.836-0.064
				c2.264-0.044,4.832-0.191,7.648-0.283c11.26-0.463,26.566-1.835,42.318-5.556c31.664-7.183,63.543-25.837,78.425-33.059
				c3.688-1.836,7.339-3.639,10.987-5.292c3.651-1.646,7.279-3.117,10.815-4.374c7.109-2.454,13.918-3.984,19.833-4.218
				c5.907-0.256,10.769,0.603,13.849,1.952c0.388,0.151,0.749,0.299,1.086,0.446c0.333,0.163,0.636,0.353,0.917,0.522
				c0.559,0.344,1.013,0.668,1.363,0.973C387.131,116.424,387.412,116.941,387.282,117.369z"/>
		</g>
		<g>
			<path fill="#FFC0CB" d="M64.26,54.34c1.169-0.985,3.35-0.554,5.896,0.977c2.551,1.526,5.436,4.136,8.086,7.378
				c2.665,3.254,7.732,11.094,12.735,17.664c2.488,3.303,4.996,6.268,6.923,8.419c0.942,1.106,1.759,1.968,2.298,2.627
				c0.538,0.661,0.804,1.103,0.71,1.251c-0.083,0.131-0.573,0.045-1.393-0.221c-0.821-0.265-1.984-0.699-3.324-1.375
				c-2.723-1.289-6.269-3.417-9.787-6.02C79.32,79.86,72.333,73.01,69.643,69.726c-2.705-3.308-4.606-6.678-5.569-9.438
				C63.113,57.521,63.083,55.331,64.26,54.34z"/>
		</g>
		<g>
			<path fill="#FFC0CB" d="M20.941,89.459c-0.021-1.907,1.982-3.668,5.284-4.935c3.294-1.273,7.922-2.036,13.082-1.851
				c2.572,0.083,6.766,0.61,11.563,1.608c4.795,0.991,10.188,2.517,15.069,4.447c4.889,1.915,9.239,4.208,12.195,6.23
				c1.505,0.954,2.639,1.905,3.407,2.584c0.764,0.688,1.139,1.159,1.043,1.356c-0.084,0.172-0.691,0.172-1.69,0.04
				c-1.004-0.123-2.378-0.433-4.082-0.686c-3.362-0.621-7.917-1.255-12.737-1.588c-9.643-0.75-20.416-0.021-25.274-0.168
				C29.147,96.167,20.986,93.316,20.941,89.459z"/>
		</g>
		<g>
			<path fill="#FFC0CB" d="M99.053,112.941c0,0,2.201,1.271,6.009,3.474c3.866,2.215,9.526,5.284,16.621,8.745
				c7.15,3.356,15.731,7.109,25.5,10.487c9.771,3.355,20.717,6.31,32.375,8.314c11.657,2.012,22.929,2.79,33.19,2.528
				c0.642-0.008,1.282,0.007,1.916-0.015c0.63-0.042,1.259-0.082,1.883-0.124c1.246-0.075,2.479-0.15,3.698-0.224
				c1.215-0.093,2.426-0.093,3.597-0.252c1.172-0.14,2.329-0.277,3.469-0.415c2.271-0.28,4.516-0.462,6.552-0.869
				c1.035-0.159,2.05-0.373,3.045-0.596c0.996-0.212,1.973-0.418,2.928-0.665c3.819-0.912,7.312-1.893,10.416-2.635
				c1.549-0.384,3-0.715,4.352-0.981c1.336-0.299,2.582-0.491,3.696-0.665c1.131-0.196,2.074-0.284,2.872-0.512
				c0.791-0.218,1.583-0.493,2.192-0.433c0.614,0.03,1.056,0.185,1.339,0.293c0.282,0.105,0.429,0.157,0.429,0.157
				s-0.153-0.021-0.45-0.063c-0.293-0.047-0.738-0.104-1.294-0.02c-0.58,0.068-1.139,0.411-1.94,0.804
				c-0.4,0.196-0.846,0.375-1.338,0.544c-0.468,0.164-0.966,0.34-1.491,0.526c-1.047,0.362-2.207,0.757-3.458,1.27
				c-1.257,0.479-2.612,1.032-4.065,1.647c-2.914,1.209-6.2,2.683-9.983,4.144c-0.935,0.381-1.919,0.729-2.931,1.083
				c-1.005,0.364-2.041,0.722-3.13,1.027c-2.17,0.712-4.412,1.151-6.749,1.698c-1.173,0.265-2.363,0.533-3.569,0.805
				c-1.208,0.288-2.46,0.411-3.721,0.623c-1.269,0.191-2.552,0.384-3.849,0.577c-0.653,0.097-1.31,0.192-1.968,0.288
				c-0.663,0.078-1.332,0.116-2.004,0.176c-10.75,1.098-22.769,0.824-35.07-1.302c-12.305-2.115-23.674-5.763-33.537-10.013
				c-9.866-4.274-18.231-9.124-25.004-13.492c-6.718-4.475-11.848-8.479-15.279-11.367
				C100.974,114.614,99.053,112.941,99.053,112.941z"/>
		</g>
		<g>
			<path fill="#FFC0CB" d="M58.077,128.583c-1.617-1.001-2.369-3.086-2.037-5.529c0.315-2.441,1.662-5.193,3.966-7.482
				c1.151-1.141,3.28-2.74,6.023-4.243c2.731-1.501,6.098-2.938,9.661-3.573c1.772-0.315,3.595-0.413,5.284-0.183
				c1.686,0.227,3.21,0.777,4.279,1.538c1.079,0.737,1.713,1.552,2.036,2.166c0.307,0.639,0.367,1.042,0.221,1.203
				c-0.266,0.327-1.636-0.22-3.341,0.013c-1.688,0.184-3.555,1.222-5.415,2.817c-1.86,1.579-3.676,3.658-5.224,5.555
				c-1.554,1.89-2.846,3.598-3.771,4.516C66.043,129.031,61.335,130.529,58.077,128.583z"/>
		</g>
	</g>
</g>
</svg>
